<svg width="36" height="36" viewBox="0 0 36 36" fill="none" xmlns="http://www.w3.org/2000/svg">
<rect width="36" height="36" rx="10" fill="#300247"/>
<path d="M8.29776 9.92254C8.41585 9.38386 8.89297 9 9.44445 9H29.5965C30.3479 9 30.9058 9.69611 30.7422 10.4295L27.8277 23.496C27.6362 24.3547 26.8743 24.9653 25.9945 24.9653H22.5L14.5 30.5L15.5 24.9653H6.45915C5.70951 24.9653 5.15194 24.2723 5.31246 23.54L8.29776 9.92254Z" fill="url(#paint0_radial)"/>
<path d="M8.29776 9.92254C8.41585 9.38386 8.89297 9 9.44445 9H29.5965C30.3479 9 30.9058 9.69611 30.7422 10.4295L27.8277 23.496C27.6362 24.3547 26.8743 24.9653 25.9945 24.9653H22.5L14.5 30.5L15.5 24.9653H6.45915C5.70951 24.9653 5.15194 24.2723 5.31246 23.54L8.29776 9.92254Z" fill="url(#paint1_radial)"/>
<defs>
<radialGradient id="paint0_radial" cx="0" cy="0" r="1" gradientTransform="matrix(-48.8639 46.2909 -23.8959 -17.1226 46 9.5)" gradientUnits="userSpaceOnUse">
<stop offset="0.0425468" stop-color="#E9D2F9"/>
<stop offset="0.306464" stop-color="#D9A4FF"/>
<stop offset="0.431955" stop-color="#FF8FDA"/>
<stop offset="0.777905" stop-color="#FFDBD2"/>
<stop offset="1" stop-color="#E2BBFF"/>
</radialGradient>
<radialGradient id="paint1_radial" cx="0" cy="0" r="1" gradientTransform="matrix(-38.1496 -10.2046 -12.673 -37.6772 35.2999 26.7404)" gradientUnits="userSpaceOnUse">
<stop offset="0.432692" stop-color="#C16FFB" stop-opacity="0"/>
<stop offset="0.701923" stop-color="#F86E8D"/>
<stop offset="0.764423" stop-color="#FF6F6A"/>
<stop offset="1" stop-color="#E46AFF"/>
</radialGradient>
</defs>
</svg>