<svg width="340" height="200" viewBox="0 0 340 200" fill="none" xmlns="http://www.w3.org/2000/svg">
<g clip-path="url(#clip0_210_13)">
<rect width="340" height="200" rx="12" fill="#C16FFB"/>
<rect x="29" y="67" width="281" height="153" fill="#D9D9D9"/>
<rect x="29" y="39" width="104" height="105" fill="#D9D9D9"/>
<rect x="137" y="39" width="78" height="26" fill="#D9D9D9"/>
<rect x="219" y="39" width="56" height="26" fill="#D9D9D9"/>
<rect x="279" y="39" width="31" height="26" fill="#D9D9D9"/>
<path d="M43.8 58V56.336H46.44V48.832L43.8 50.704V48.72L46.504 46.8H48.36V56.336H50.52V58H43.8Z" fill="black"/>
<path d="M145.56 58V56.496L149.736 52.88C150.195 52.4747 150.563 52.128 150.84 51.84C151.117 51.5413 151.32 51.264 151.448 51.008C151.576 50.7413 151.64 50.4587 151.64 50.16C151.64 49.616 151.475 49.1733 151.144 48.832C150.824 48.4907 150.376 48.32 149.8 48.32C149.117 48.32 148.584 48.5067 148.2 48.88C147.827 49.2427 147.64 49.8027 147.64 50.56H145.72C145.72 49.7707 145.885 49.0827 146.216 48.496C146.557 47.8987 147.032 47.44 147.64 47.12C148.248 46.7893 148.968 46.624 149.8 46.624C150.611 46.624 151.293 46.7787 151.848 47.088C152.413 47.3867 152.84 47.8027 153.128 48.336C153.416 48.8693 153.56 49.4773 153.56 50.16C153.56 50.6613 153.453 51.136 153.24 51.584C153.027 52.0213 152.733 52.4427 152.36 52.848C151.997 53.2427 151.571 53.632 151.08 54.016L148.232 56.336H153.72V58H145.56Z" fill="black"/>
<path d="M231.64 58.176C230.776 58.176 230.045 58.032 229.448 57.744C228.861 57.456 228.413 57.0613 228.104 56.56C227.795 56.048 227.64 55.4613 227.64 54.8H229.56C229.56 55.3333 229.725 55.7493 230.056 56.048C230.397 56.336 230.925 56.48 231.64 56.48C232.333 56.48 232.851 56.336 233.192 56.048C233.544 55.7493 233.72 55.3333 233.72 54.8C233.72 54.256 233.56 53.8293 233.24 53.52C232.92 53.2 232.387 53.04 231.64 53.04H230.52V51.44H231.64C232.28 51.44 232.76 51.3067 233.08 51.04C233.4 50.7627 233.56 50.368 233.56 49.856C233.56 49.344 233.405 48.96 233.096 48.704C232.797 48.448 232.312 48.32 231.64 48.32C230.979 48.32 230.488 48.4533 230.168 48.72C229.859 48.9867 229.704 49.36 229.704 49.84H227.784C227.784 49.1893 227.928 48.624 228.216 48.144C228.515 47.664 228.952 47.2907 229.528 47.024C230.104 46.7573 230.808 46.624 231.64 46.624C232.483 46.624 233.187 46.7627 233.752 47.04C234.317 47.3067 234.744 47.6693 235.032 48.128C235.331 48.576 235.48 49.0773 235.48 49.632C235.48 50.272 235.309 50.8107 234.968 51.248C234.627 51.6747 234.157 51.9787 233.56 52.16C234.211 52.352 234.717 52.6773 235.08 53.136C235.453 53.584 235.64 54.192 235.64 54.96C235.64 55.5573 235.485 56.1013 235.176 56.592C234.877 57.0827 234.429 57.472 233.832 57.76C233.245 58.0373 232.515 58.176 231.64 58.176Z" fill="black"/>
<path d="M290.84 58V55.472H285.32V54.048L290.76 46.8H292.76V53.808H294.12V55.472H292.76V58H290.84ZM287.24 53.808H290.84V49.008L287.24 53.808Z" fill="black"/>
</g>
<defs>
<clipPath id="clip0_210_13">
<rect width="340" height="200" rx="12" fill="white"/>
</clipPath>
</defs>
</svg>
