<svg width="1200" height="1200" viewBox="0 0 1200 1200" fill="none" xmlns="http://www.w3.org/2000/svg">
<path d="M0 16C0 7.16343 7.16344 0 16 0H1184C1192.84 0 1200 7.16344 1200 16V1184C1200 1192.84 1192.84 1200 1184 1200H16C7.16343 1200 0 1192.84 0 1184V16Z" fill="#C16FFB"/>
<path d="M0 16C0 7.16343 7.16344 0 16 0H1184C1192.84 0 1200 7.16344 1200 16V1184C1200 1192.84 1192.84 1200 1184 1200H16C7.16343 1200 0 1192.84 0 1184V16Z" fill="url(#paint0_radial_244_45532)" fill-opacity="0.4" style="mix-blend-mode:plus-lighter"/>
<defs>
<radialGradient id="paint0_radial_244_45532" cx="0" cy="0" r="1" gradientUnits="userSpaceOnUse" gradientTransform="translate(600 489.091) rotate(92.1846) scale(1001.64 711.487)">
<stop offset="0.646556" stop-color="#F5ECFE" stop-opacity="0"/>
<stop offset="1" stop-color="#F6F3FE" stop-opacity="0.6"/>
</radialGradient>
</defs>
</svg>
