<svg viewBox="0 0 77.97 13.0899" fill="none" xmlns="http://www.w3.org/2000/svg">
<g id="&#208;&#160;&#208;&#184;&#208;&#178; &#208;&#147;&#208;&#190;&#209;&#136;" clip-path="url(#clip0_367_567)">
<path id="Vector" d="M0.13114 0.290528V12.3844H2.59545V9.90305H5.27602C6.05324 9.87886 6.80983 9.647 7.46717 9.23149C8.28227 8.75638 8.93488 8.04623 9.33959 7.19402C9.72653 6.41352 9.88435 5.53933 9.79489 4.67278C9.74458 4.06884 9.58044 3.47987 9.31113 2.93696C8.88833 2.07683 8.21329 1.36607 7.37611 0.899492C6.68388 0.498182 5.89969 0.282535 5.09959 0.273455L0.13114 0.290528ZM2.59545 7.45013V2.76053H4.45079C4.81516 2.74929 5.17967 2.77792 5.53782 2.8459C5.95961 2.92916 6.34713 3.13593 6.65116 3.43994C6.95513 3.74395 7.16195 4.13147 7.24521 4.55327C7.31595 4.85036 7.32625 5.15866 7.27537 5.4598C7.22455 5.76097 7.11363 6.04877 6.94926 6.30619C6.78194 6.57032 6.56408 6.79888 6.3082 6.97855C6.05232 7.15828 5.76344 7.28565 5.45814 7.35338C5.25186 7.39253 5.042 7.40972 4.8321 7.4046L2.59545 7.45013Z" fill="var(--fill-0, #15181F)"/>
<path id="Vector_2" d="M56.2526 12.5893C57.922 12.6338 59.5406 12.0134 60.7528 10.8644C61.9645 9.71547 62.6707 8.13211 62.7151 6.4627C62.7595 4.79329 62.1392 3.17456 60.9901 1.96262C59.8411 0.750688 58.2578 0.0448149 56.5884 0.000287289H56.412C54.7556 -0.0152781 53.1594 0.620348 51.9671 1.77026C51.0825 2.63877 50.4732 3.74858 50.2154 4.96117C49.9575 6.17375 50.0624 7.43544 50.5171 8.58877C50.9717 9.7421 51.756 10.736 52.7719 11.4464C53.7879 12.1568 54.9905 12.5524 56.2299 12.5836L56.2526 12.5893ZM53.7485 3.65406C54.098 3.30693 54.5141 3.03418 54.9719 2.85225C55.4297 2.67032 55.9195 2.58298 56.412 2.59549C57.3898 2.60301 58.3255 2.99764 59.0136 3.69304C59.7011 4.38844 60.0858 5.32801 60.0829 6.30619C60.0738 7.27592 59.684 8.20325 58.9971 8.88796C58.3101 9.57262 57.3819 9.95974 56.412 9.96566C55.6812 9.96002 54.9684 9.73869 54.363 9.32955C53.7575 8.92035 53.2863 8.34149 53.0085 7.6656C52.7308 6.98965 52.6587 6.24677 52.8015 5.53011C52.9442 4.81343 53.2955 4.15485 53.8111 3.63699" fill="var(--fill-0, #15181F)"/>
<path id="Vector_3" d="M74.9256 0.290466V9.90299H72.1369V0.290466H69.6271V9.90299H66.8384V0.290466H64.3456V12.3844H77.407V1.49132C77.4036 1.32277 77.3655 1.1567 77.2955 1.00341C77.2255 0.850125 77.1242 0.712909 76.999 0.600285C76.8737 0.48766 76.7263 0.402039 76.5664 0.348741C76.4065 0.295443 76.2375 0.275607 76.0696 0.290466H74.9256Z" fill="var(--fill-0, #15181F)"/>
<path id="Vector_4" d="M43.293 2.78329H49.485V0.273455H40.8002V12.3844H43.293V2.78329Z" fill="var(--fill-0, #15181F)"/>
<path id="Vector_5" d="M34.2784 6.32907C34.4321 6.13556 34.5857 5.92499 34.637 5.84525C35.1315 5.08595 35.3206 4.16775 35.1665 3.2748C35.0124 2.38184 34.5264 1.58016 33.806 1.03049C32.9032 0.483373 31.8547 0.225225 30.8011 0.290632H24.0854V12.3845H30.8011C31.5409 12.3845 33.1231 12.1341 33.7946 11.6219C34.515 11.0722 35.001 10.2705 35.1551 9.37758C35.3093 8.48462 35.1201 7.56646 34.6256 6.80713C34.5744 6.72745 34.4036 6.50549 34.267 6.32907H34.2784ZM26.5497 2.74925H31.5068C31.8354 2.75093 32.1502 2.88176 32.3832 3.11349C32.5326 3.27185 32.6334 3.46973 32.6737 3.68365C32.7141 3.89757 32.6922 4.11857 32.6107 4.32044C32.5293 4.52231 32.3916 4.69659 32.2141 4.82261C32.0366 4.94863 31.8267 5.0211 31.6092 5.03143H26.5497V2.74925ZM32.3946 9.53893C32.2809 9.65599 32.1446 9.74865 31.9939 9.81131C31.8432 9.87391 31.6813 9.90516 31.5182 9.90316H26.5611V7.62667H31.6206C31.8369 7.63788 32.0456 7.71067 32.222 7.83633C32.3984 7.96205 32.5353 8.13547 32.6166 8.33631C32.6978 8.5371 32.7201 8.75689 32.6808 8.96992C32.6415 9.18294 32.5422 9.38037 32.3946 9.53893Z" fill="var(--fill-0, #15181F)"/>
<path id="Vector_6" d="M11.2458 1.49128C11.249 1.32221 11.287 1.15561 11.3575 1.00191C11.4279 0.848207 11.5294 0.710707 11.6555 0.597998C11.7815 0.48529 11.9295 0.399803 12.0901 0.34688C12.2507 0.293958 12.4205 0.274739 12.5889 0.290427H13.7271V8.18987C13.7271 8.18987 19.4867 0.734343 19.8908 0.290427H22.2925V12.3843H19.8282V4.45072L13.7271 12.3843H11.2571L11.2458 1.49128Z" fill="var(--fill-0, #15181F)"/>
</g>
<defs>
<clipPath id="clip0_367_567">
<rect width="77.97" height="13.0899" fill="white"/>
</clipPath>
</defs>
</svg>
